<svg width="651" height="766" viewBox="0 0 651 766" fill="none" xmlns="http://www.w3.org/2000/svg">
<path d="M367.562 0.500025C253.187 -1.37497 147.875 64.875 100.687 169.25C83.812 206.75 75.062 246.75 75.062 288C75.062 289.563 75.062 298.313 75.062 311.75C72.8745 321.438 64.437 331.125 55.687 339.875L45.062 349.875C25.687 368.313 16.6245 377.375 13.812 380.813C8.18704 387.375 4.74954 393.938 2.56204 400.5C-4.62546 422.375 12.562 433 18.187 436.75C23.4995 439.875 29.437 443 36.312 446.125C41.6245 448.625 47.562 451.125 52.8745 453.625C53.4995 453.938 54.437 454.25 55.062 454.563C59.437 483.625 75.9995 593.625 76.312 594.563C78.4995 613 84.7495 627.063 95.062 636.438C113.187 653 137.562 652.375 157.25 651.75C171.937 651.438 184.437 651.438 197.875 651.438C198.812 663 199.75 680.188 200.687 695.188C201.937 711.75 202.875 728.938 203.812 742.063C204.125 749.25 207.875 755.813 213.5 760.5C217.875 763.938 223.5 765.813 228.812 765.813C230.375 765.813 232.25 765.5 233.812 765.188L553.5 701.75C570.687 698.313 583.187 683 583.187 665.5V607.375C583.187 538.938 597.875 469.875 627.25 402.375C643.499 364.875 651.312 324.563 650.687 283C647.875 126.75 523.187 3.00003 367.562 0.500025ZM599.75 390.188C568.812 461.438 553.187 534.563 553.187 607.375V665.5C553.187 668.625 551 671.438 547.875 672.063L234.125 734.563C233.187 722.375 232.25 707.688 231.312 693.313C227.562 635.5 227.25 634.875 226.625 632.375L223.5 621.438H211.937H209.125C191.625 621.438 175.375 621.125 156.625 621.75C141 622.063 124.75 622.688 115.687 614.563C111 610.188 107.875 602.375 106.625 591.125C106.312 589.25 84.437 443.938 84.437 443.938L83.812 439.563L80.9995 436.125L77.562 432.375C74.1245 429.563 70.3745 428.313 67.562 427.063L65.687 426.438C60.3745 424.25 55.062 421.75 49.437 419.25C43.4995 416.438 38.4995 413.938 34.437 411.438C33.187 410.813 32.562 410.188 31.937 409.563C32.8745 406.75 34.7495 403.938 37.562 400.188C40.062 397.063 56.937 380.813 66.312 372.063C70.687 368 74.437 364.25 76.937 361.75C89.7495 348.938 102.25 334.563 105.062 315.813L105.375 314.563V313.313C105.375 298.938 105.375 289.875 105.375 288.313C105.375 251.125 113.187 215.5 128.187 182.063C170.687 88.625 265.062 29.25 367.25 30.8125C506.625 33 618.187 143.938 620.687 283.313C621.312 320.5 614.125 356.75 599.75 390.188Z" fill="#FCD34D"/>
<path d="M403.187 122.375H326C287.562 122.375 251.625 137.375 224.125 164.563C217.563 171.438 211.937 178 207.25 184.563C190.687 208.625 181.938 236.75 181.938 266.125C181.938 308.938 201 349.25 233.5 376.438C227.25 388.938 219.438 400.813 210.062 411.438C204.438 417.688 203.188 426.75 206.625 434.25C210.063 441.75 217.562 446.75 226 446.75C266.625 446.75 304.75 433.938 337.25 409.875H403.187C441.625 409.875 477.875 394.875 505.063 367.688C532.25 340.5 547.25 304.25 547.25 265.813C547.25 187.063 482.562 122.375 403.187 122.375ZM483.5 346.75C461.937 368.313 433.5 380.188 402.875 380.188H326.313L322.25 383.313C299.438 401.125 273.187 412.375 245.062 415.813C253.5 403.938 260.375 391.125 266 377.688L270.375 366.438L260.687 359.563C230.375 338.313 212.25 303.313 212.25 266.438C212.25 243.313 219.125 220.813 232.25 201.75C236 196.438 240.375 191.125 245.375 185.813C266.937 164.25 295.687 152.375 326 152.375H403.187C466 152.375 516.938 203.313 516.938 266.125C516.938 297.063 505.062 325.5 483.5 346.75Z" fill="#FCD34D"/>
</svg>
